<svg xmlns="http://www.w3.org/2000/svg" xmlns:xlink="http://www.w3.org/1999/xlink" width="500" zoomAndPan="magnify" viewBox="0 0 375 374.999991" height="500" preserveAspectRatio="xMidYMid meet" version="1.0"><defs><clipPath id="58fcd4f55f"><path d="M 89 30.941406 L 265 30.941406 L 265 342 L 89 342 Z M 89 30.941406 " clip-rule="nonzero"/></clipPath><clipPath id="97368f1f91"><path d="M 210 51 L 350.992188 51 L 350.992188 281 L 210 281 Z M 210 51 " clip-rule="nonzero"/></clipPath><clipPath id="2c864554eb"><path d="M 24 131 L 214 131 L 214 343.691406 L 24 343.691406 Z M 24 131 " clip-rule="nonzero"/></clipPath></defs><g clip-path="url(#58fcd4f55f)"><path fill="#cb1111" d="M 256.304688 335.800781 C 255.589844 333.832031 255.242188 330.082031 255.242188 324.324219 L 255.242188 254.210938 C 255.242188 248.625 255.550781 244.992188 256.210938 243.078125 C 256.789062 241.375 257.773438 239.984375 259.109375 238.960938 C 260.324219 238.980469 261.542969 238.960938 262.800781 238.921875 C 262.894531 238.921875 262.972656 238.921875 263.070312 238.902344 L 263.960938 238.863281 C 264.09375 238.863281 264.191406 238.808594 264.210938 238.730469 C 264.25 238.632812 264.25 238.574219 264.25 238.535156 L 264.210938 238.441406 L 264.191406 238.382812 C 264.152344 238.304688 264.054688 238.265625 263.921875 238.246094 C 262.722656 238.246094 261.5625 238.207031 260.402344 238.128906 C 261.503906 237.53125 262.644531 237.046875 263.804688 236.738281 L 250.953125 236.738281 C 249.039062 236.273438 247.203125 235.695312 245.425781 235 C 245.367188 234.980469 245.328125 234.960938 245.269531 234.941406 C 243.976562 234.4375 242.699219 233.859375 241.484375 233.261719 C 237.464844 231.269531 233.8125 228.777344 230.527344 225.761719 C 235.511719 219.578125 238.273438 214.515625 238.816406 210.550781 C 239.359375 206.589844 239.589844 203.710938 239.492188 201.914062 C 239.320312 198.203125 238.390625 194.78125 236.75 191.671875 C 234.273438 187.070312 230.96875 183.84375 226.835938 182.007812 C 222.71875 180.171875 218.621094 179.359375 214.5625 179.554688 C 212.726562 179.652344 210.8125 179.902344 208.804688 180.347656 C 208.148438 176.210938 207.722656 172 207.507812 167.726562 C 207.355469 164.578125 207.316406 161.367188 207.414062 158.140625 C 212.996094 155.550781 218.757812 152.691406 224.726562 149.5625 C 230.699219 146.429688 236.34375 143.085938 241.695312 139.492188 C 247.03125 135.898438 251.511719 132.070312 255.148438 127.992188 C 258.800781 123.722656 260.867188 120.050781 261.371094 117.035156 C 261.871094 114.003906 262.085938 111.703125 262.007812 110.15625 C 261.890625 107.703125 261.332031 105.402344 260.324219 103.296875 C 258.625 99.875 256.402344 97.613281 253.640625 96.53125 C 250.875 95.449219 248.304688 94.964844 245.949219 95.082031 C 243.859375 95.179688 241.617188 95.625 239.183594 96.394531 C 232.476562 98.8125 226.796875 102.621094 222.136719 107.835938 C 217.460938 113.054688 213.730469 119.144531 210.949219 126.121094 C 208.148438 133.09375 206.253906 140.402344 205.230469 148.074219 C 204.957031 148.1875 204.6875 148.324219 204.4375 148.441406 C 203.972656 148.652344 203.488281 148.867188 203.042969 149.058594 C 202.523438 149.269531 202.019531 149.503906 201.519531 149.714844 C 200.6875 150.082031 199.855469 150.449219 199.023438 150.816406 C 196.800781 150.042969 194.890625 148.902344 193.324219 147.414062 C 190.578125 144.789062 187.660156 139.414062 184.433594 130.949219 L 146.265625 30.941406 L 145.78125 30.941406 L 107.210938 129.886719 C 103.710938 138.96875 100.5625 144.882812 97.605469 147.957031 C 96.136719 149.503906 93.351562 150.71875 89.101562 151.667969 L 89.101562 151.820312 L 120.429688 151.820312 C 115.558594 151.300781 112.445312 150.351562 110.707031 148.828125 C 108.714844 147.085938 107.691406 145 107.691406 142.625 C 107.691406 140.054688 108.640625 136.382812 110.589844 131.414062 L 118.554688 111.121094 L 163.871094 111.121094 L 171.003906 129.714844 C 173.285156 135.648438 174.386719 139.9375 174.386719 142.796875 C 174.386719 145.289062 173.398438 147.414062 171.464844 149.117188 C 169.863281 150.527344 167.253906 151.417969 163.484375 151.804688 L 196.800781 151.804688 C 195.527344 152.382812 194.269531 152.960938 193.015625 153.542969 C 191.777344 154.121094 190.558594 154.703125 189.34375 155.28125 C 184.667969 157.542969 180.164062 159.84375 175.835938 162.199219 C 167.445312 166.78125 160.316406 172.289062 154.441406 178.722656 C 149.53125 184.386719 146.035156 190.222656 143.910156 196.25 C 141.800781 202.28125 140.875 208.019531 141.144531 213.472656 C 141.183594 214.261719 141.242188 215.074219 141.320312 215.867188 C 141.957031 222.050781 144.179688 227.597656 147.984375 232.488281 C 151.792969 237.375 157.28125 241.085938 164.453125 243.636719 C 164.855469 247.542969 165.941406 251.195312 167.738281 254.59375 C 169.535156 257.976562 172.125 260.992188 175.523438 263.601562 C 175.601562 263.640625 175.660156 263.640625 175.738281 263.640625 L 175.835938 263.640625 C 175.929688 263.601562 175.988281 263.542969 176.007812 263.464844 C 176.027344 263.390625 176.027344 263.351562 176.027344 263.3125 C 176.027344 263.234375 175.988281 263.175781 175.910156 263.097656 C 175.699219 262.867188 175.503906 262.671875 175.371094 262.5 C 175.195312 262.324219 175.0625 262.210938 174.964844 262.132812 C 174.867188 262.054688 174.789062 261.976562 174.714844 261.902344 C 174.636719 261.84375 174.539062 261.726562 174.441406 261.589844 C 174.402344 261.515625 174.328125 261.457031 174.230469 261.398438 C 169.921875 256.355469 167.542969 250.691406 167.097656 244.429688 C 174.769531 246.421875 182.019531 247.25 188.820312 246.921875 C 193.496094 246.691406 197.980469 245.917969 202.273438 244.605469 C 212.765625 241.378906 221.675781 235.675781 229.039062 227.460938 C 231.628906 229.722656 234.390625 231.65625 237.328125 233.261719 C 238.46875 233.898438 239.648438 234.457031 240.84375 235 C 242.003906 235.519531 243.203125 235.984375 244.421875 236.410156 C 244.730469 236.527344 245.058594 236.621094 245.386719 236.738281 L 236.128906 236.738281 C 237.425781 237.105469 238.699219 237.648438 239.9375 238.382812 L 239.976562 238.402344 C 241.792969 239.558594 243.03125 240.972656 243.667969 242.613281 L 243.6875 242.652344 C 244.382812 244.683594 244.730469 248.449219 244.730469 254.191406 L 244.730469 324.304688 C 244.730469 333.539062 243.550781 336.324219 242.679688 337.617188 L 242.664062 337.636719 C 241.195312 339.707031 239.164062 341.078125 236.59375 341.773438 L 263.882812 341.773438 C 262.585938 341.40625 261.332031 340.863281 260.113281 340.113281 C 258.199219 338.972656 256.925781 337.523438 256.304688 335.800781 Z M 213.539062 126.523438 C 216.03125 119.972656 219.472656 114.234375 223.820312 109.285156 C 228.167969 104.339844 233.578125 100.859375 240.054688 98.792969 C 241.945312 98.25 243.667969 97.941406 245.234375 97.863281 C 247.28125 97.769531 249.078125 98.058594 250.644531 98.753906 C 253.367188 99.953125 255.109375 101.519531 255.824219 103.449219 C 256.539062 105.402344 256.945312 107.027344 257 108.339844 C 257.078125 109.964844 256.867188 111.683594 256.363281 113.480469 C 255.476562 116.765625 253.542969 119.875 250.566406 122.832031 C 246.875 126.351562 241.542969 130.023438 234.566406 133.847656 C 227.589844 137.675781 218.871094 141.925781 208.417969 146.605469 C 209.324219 139.78125 211.046875 133.078125 213.539062 126.523438 Z M 119.730469 107.933594 L 141.609375 52.257812 L 162.90625 107.933594 Z M 164.316406 239 C 157.765625 235.117188 153.628906 231.019531 151.929688 226.746094 C 150.226562 222.457031 149.300781 218.746094 149.144531 215.597656 C 149.011719 212.792969 149.28125 209.894531 149.976562 206.957031 C 151.386719 200.695312 154.265625 194.726562 158.652344 189.023438 C 163.464844 182.976562 169.667969 177.777344 177.226562 173.429688 C 184.78125 169.0625 193.128906 164.808594 202.253906 160.632812 C 202.929688 160.324219 203.625 159.996094 204.339844 159.648438 C 204.261719 162.546875 204.300781 165.40625 204.4375 168.25 C 204.648438 172.558594 205.09375 176.847656 205.789062 181.121094 C 201.480469 182.472656 197.535156 184.445312 193.980469 187.015625 C 190.425781 189.585938 187.179688 192.445312 184.28125 195.574219 C 178.617188 201.507812 173.941406 208.332031 170.25 216.023438 C 166.539062 223.65625 164.566406 231.328125 164.316406 239 Z M 207.816406 239.058594 C 200.898438 242.054688 194.078125 243.714844 187.351562 244.042969 L 186.097656 244.101562 C 179.003906 244.277344 172.664062 243.039062 167.042969 240.371094 C 167.371094 232.601562 169.378906 224.890625 173.089844 217.238281 C 176.800781 209.585938 181.148438 202.898438 186.136719 197.199219 C 188.394531 194.472656 191.238281 191.808594 194.65625 189.140625 C 198.078125 186.492188 201.90625 184.445312 206.15625 182.976562 C 207.664062 191.324219 210.15625 199.152344 213.597656 206.457031 C 217.035156 213.761719 221.441406 220.082031 226.816406 225.375 C 221.054688 231.5 214.71875 236.0625 207.816406 239.058594 Z M 228.34375 223.65625 C 223.105469 218.109375 218.910156 211.691406 215.78125 204.40625 C 212.648438 197.140625 210.425781 189.71875 209.132812 182.164062 C 210.640625 181.875 212.109375 181.699219 213.539062 181.640625 C 217.34375 181.449219 220.863281 182.046875 224.050781 183.417969 C 228.496094 185.332031 231.703125 187.980469 233.675781 191.402344 C 235.648438 194.820312 236.710938 198.222656 236.882812 201.625 C 236.960938 203.226562 236.882812 204.871094 236.652344 206.589844 C 235.9375 212.003906 233.171875 217.683594 228.34375 223.65625 Z M 228.34375 223.65625 " fill-opacity="1" fill-rule="nonzero"/></g><path fill="#cb1111" d="M 306.203125 324.304688 L 268.636719 283.351562 L 284.8125 265.707031 C 293.71875 255.734375 298.570312 250.34375 299.691406 249.242188 C 303.441406 245.453125 306.6875 242.632812 309.296875 240.894531 C 311.984375 239.117188 314.207031 237.9375 316.117188 237.300781 C 316.738281 237.085938 317.394531 236.914062 318.050781 236.757812 L 292.386719 236.757812 C 293.351562 237.066406 294.144531 237.511719 294.800781 238.089844 C 296.195312 239.367188 296.910156 240.894531 296.910156 242.613281 C 296.910156 244.566406 296.175781 246.691406 294.6875 249.125 C 291.554688 254.152344 282.917969 263.757812 268.230469 278.5 C 262.972656 283.816406 259.6875 287.160156 258.488281 288.394531 L 292.445312 325.230469 C 296.078125 329.132812 296.96875 330.601562 297.316406 331.375 C 297.875 332.613281 298.164062 334.023438 298.164062 335.53125 C 298.164062 337.347656 297.335938 338.972656 295.691406 340.34375 C 294.917969 340.980469 293.972656 341.464844 292.832031 341.792969 L 331.792969 341.792969 C 328.527344 341.117188 325.242188 339.859375 321.992188 338.042969 C 317.605469 335.589844 312.292969 330.96875 306.203125 324.304688 Z M 306.203125 324.304688 " fill-opacity="1" fill-rule="nonzero"/><g clip-path="url(#97368f1f91)"><path fill="#cb1111" d="M 211.800781 54.035156 C 288.078125 57.996094 347.851562 120.996094 347.851562 197.46875 C 347.851562 226.246094 339.367188 254.015625 323.328125 277.765625 C 322.863281 278.460938 323.039062 279.390625 323.734375 279.855469 C 323.984375 280.027344 324.273438 280.105469 324.5625 280.105469 C 325.046875 280.105469 325.511719 279.875 325.800781 279.449219 C 342.1875 255.195312 350.847656 226.84375 350.847656 197.46875 C 350.847656 119.414062 289.835938 55.097656 211.953125 51.039062 C 211.101562 51 210.425781 51.636719 210.371094 52.449219 C 210.332031 53.300781 210.96875 53.996094 211.800781 54.035156 Z M 211.800781 54.035156 " fill-opacity="1" fill-rule="nonzero"/></g><g clip-path="url(#2c864554eb)"><path fill="#cb1111" d="M 211.800781 340.902344 C 209.285156 341.039062 206.734375 341.097656 204.203125 341.097656 C 159.425781 341.097656 117.492188 320.300781 90.355469 285.054688 C 90.320312 285.015625 90.300781 284.976562 90.261719 284.9375 C 90.085938 284.703125 89.914062 284.472656 89.757812 284.242188 C 87.84375 281.574219 85.390625 277.207031 84.328125 275.273438 C 84.328125 273.980469 84.5 272.703125 84.792969 271.449219 C 85.371094 268.933594 86.046875 266.441406 86.9375 264.007812 C 87.4375 262.617188 87.902344 261.203125 88.386719 259.8125 C 88.714844 258.847656 89.082031 257.882812 89.410156 256.914062 C 90.066406 255 90.703125 253.109375 91.324219 251.195312 C 91.863281 249.492188 92.308594 247.773438 92.675781 246.015625 C 93.390625 242.710938 93.699219 239.347656 93.894531 235.964844 C 93.972656 234.75 93.992188 233.53125 93.777344 232.332031 C 93.738281 232.160156 93.757812 231.945312 93.605469 231.792969 C 93.371094 231.734375 93.390625 231.945312 93.351562 232.0625 C 93.238281 232.507812 93.121094 232.949219 93.042969 233.394531 C 92.367188 237.53125 91.226562 241.550781 89.914062 245.511719 C 89.082031 248.003906 88.039062 250.402344 86.917969 252.757812 C 85.371094 256.027344 83.941406 259.332031 82.898438 262.789062 C 82.277344 264.839844 81.835938 266.90625 81.660156 269.03125 C 81.582031 269.980469 81.601562 270.925781 81.660156 271.871094 C 81.679688 272.066406 81.679688 272.238281 81.679688 272.433594 C 81.679688 272.472656 81.582031 272.53125 81.542969 272.570312 C 81.527344 272.585938 81.46875 272.550781 81.449219 272.53125 C 81.371094 272.453125 81.292969 272.355469 81.234375 272.257812 C 79.785156 270 78.257812 267.757812 77.082031 265.320312 C 76.558594 264.21875 75.941406 263.175781 75.320312 262.132812 C 74.898438 261.398438 74.550781 260.664062 74.296875 259.851562 C 73.988281 258.789062 73.621094 257.765625 73.332031 256.703125 C 72.597656 254.054688 72.558594 251.40625 73.15625 248.703125 C 73.910156 245.339844 75.207031 242.207031 76.847656 239.191406 C 77.949219 237.164062 79.070312 235.132812 80.113281 233.066406 C 82.125 229.125 83.652344 225.007812 84.519531 220.660156 C 85.582031 215.324219 85.679688 209.953125 84.480469 204.621094 C 84.132812 203.035156 83.765625 201.429688 83.324219 199.867188 C 82.996094 198.707031 82.550781 197.566406 82.007812 196.484375 C 81.988281 196.425781 81.894531 196.425781 81.757812 196.347656 C 81.542969 196.964844 81.449219 197.585938 81.351562 198.203125 C 81.082031 200.15625 80.792969 202.105469 80.171875 204 C 79.324219 206.609375 78.046875 209.027344 76.597656 211.34375 C 75.320312 213.414062 73.816406 215.324219 72.402344 217.296875 C 70.800781 219.558594 69.332031 221.898438 68.152344 224.410156 C 66.507812 227.925781 65.523438 231.597656 65.699219 235.519531 C 65.699219 235.695312 65.699219 235.886719 65.699219 236.082031 C 65.386719 236.121094 65.371094 235.886719 65.292969 235.753906 C 65.234375 235.65625 65.195312 235.539062 65.175781 235.425781 C 64.171875 231.8125 63.183594 228.175781 63.109375 224.390625 C 63.070312 222.515625 63.222656 220.679688 63.535156 218.84375 C 64.34375 214.011719 66.257812 209.625 68.730469 205.449219 C 70.335938 202.746094 72.035156 200.097656 73.679688 197.410156 C 75.726562 194.066406 77.503906 190.589844 78.972656 186.976562 C 80.695312 182.703125 81.214844 178.242188 80.886719 173.679688 C 80.808594 172.65625 80.847656 171.667969 81.101562 170.625 C 80.792969 170.761719 80.695312 170.953125 80.558594 171.148438 C 79.613281 172.578125 78.644531 173.988281 77.738281 175.417969 C 76.269531 177.71875 74.605469 179.902344 72.808594 181.949219 C 70.800781 184.230469 68.886719 186.570312 67.1875 189.101562 C 64.636719 192.890625 62.953125 197.0625 62.007812 201.527344 C 61.832031 202.378906 61.734375 203.246094 61.621094 204.117188 C 61.582031 204.347656 61.601562 204.582031 61.464844 204.773438 C 61.15625 204.601562 61.253906 204.292969 61.234375 204.039062 C 61.175781 202.378906 61.253906 200.695312 61.40625 199.035156 C 61.660156 196.542969 62.160156 194.085938 62.933594 191.691406 C 63.570312 189.738281 64.285156 187.824219 65.058594 185.933594 C 65.929688 183.785156 66.820312 181.640625 67.804688 179.554688 C 69.15625 176.714844 70.527344 173.871094 71.882812 171.03125 C 73.679688 167.300781 75.515625 163.609375 77.121094 159.785156 C 77.949219 157.792969 78.703125 155.746094 79.304688 153.675781 C 79.671875 152.402344 80.019531 151.125 80.367188 149.832031 C 81.140625 147.046875 81.582031 144.1875 82.027344 141.347656 C 82.472656 138.410156 83.050781 135.511719 83.863281 132.671875 C 83.960938 132.304688 84 131.976562 83.941406 131.53125 C 83.1875 132.109375 82.492188 132.691406 81.855469 133.328125 C 79.226562 135.957031 76.714844 138.699219 74.433594 141.636719 C 72.269531 144.441406 70.511719 147.492188 69.042969 150.703125 C 68.113281 152.75 67.28125 154.816406 66.703125 156.980469 C 65.792969 160.402344 65.214844 163.882812 64.925781 167.398438 C 64.671875 170.53125 64.402344 173.679688 64.074219 176.808594 C 63.882812 178.703125 63.535156 180.558594 63.128906 182.414062 C 62.742188 184.152344 62.414062 185.914062 61.910156 187.632812 C 61.792969 188.039062 61.660156 188.425781 61.523438 188.832031 C 61.503906 188.886719 61.425781 188.964844 61.367188 188.945312 C 61.234375 188.945312 61.175781 188.851562 61.175781 188.714844 C 61.097656 187.382812 61.078125 186.066406 60.964844 184.734375 C 60.597656 180.152344 59.550781 175.746094 57.660156 171.554688 C 56.113281 168.132812 54.0625 165.039062 51.433594 162.355469 C 50.625 161.503906 49.792969 160.671875 48.960938 159.84375 C 47.570312 158.449219 46.238281 156.980469 45.019531 155.417969 C 43.800781 153.832031 42.894531 152.09375 42.3125 150.179688 C 42.042969 149.308594 41.714844 148.460938 41.636719 147.53125 C 41.617188 147.320312 41.539062 147.164062 41.40625 147.03125 C 41.308594 146.933594 41.25 146.757812 41.058594 146.777344 C 40.863281 146.796875 40.824219 146.972656 40.804688 147.105469 C 40.691406 147.78125 40.59375 148.460938 40.496094 149.136719 C 39.976562 152.90625 39.839844 156.691406 40.363281 160.480469 C 40.941406 164.671875 42.429688 168.558594 44.476562 172.230469 C 45.925781 174.820312 47.53125 177.292969 49.214844 179.746094 C 50.449219 181.527344 51.667969 183.304688 52.867188 185.121094 C 53.582031 186.203125 54.257812 187.304688 54.914062 188.40625 C 57 191.902344 58.277344 195.691406 58.816406 199.730469 C 59.339844 203.710938 59.496094 207.730469 59.6875 211.75 C 59.6875 211.886719 59.765625 212.058594 59.589844 212.175781 C 59.300781 211.945312 59.320312 211.578125 59.242188 211.25 C 58.835938 209.742188 58.449219 208.234375 58.027344 206.746094 C 56.90625 202.804688 55.125 199.167969 52.75 195.828125 C 51.726562 194.378906 50.644531 192.945312 49.582031 191.515625 C 48.402344 189.933594 47.203125 188.367188 46.160156 186.683594 C 44.554688 184.113281 43.53125 181.3125 42.640625 178.433594 C 42.546875 178.144531 42.46875 177.855469 42.332031 177.371094 C 42.160156 178.046875 42.238281 178.550781 42.292969 179.03125 C 42.640625 182.007812 43.453125 184.832031 44.941406 187.457031 C 45.832031 189.003906 46.816406 190.492188 47.859375 191.941406 C 48.847656 193.292969 49.8125 194.648438 50.777344 196.019531 C 53.058594 199.265625 54.816406 202.785156 56.054688 206.570312 C 57.425781 210.765625 58.429688 215.035156 59.222656 219.382812 C 59.261719 219.578125 59.261719 219.75 59.28125 219.945312 C 59.28125 219.984375 59.242188 220.003906 59.222656 220.042969 C 58.992188 220.117188 58.992188 219.90625 58.953125 219.789062 C 58.375 218.515625 57.832031 217.21875 57.234375 215.945312 C 55.164062 211.519531 52.324219 207.671875 48.710938 204.386719 C 47.339844 203.132812 45.925781 201.933594 44.535156 200.695312 C 43.203125 199.519531 41.925781 198.261719 40.804688 196.871094 C 39.839844 195.691406 38.96875 194.453125 38.214844 193.121094 C 37.171875 191.285156 36.417969 189.351562 36.207031 187.246094 C 36.167969 186.917969 36.246094 186.550781 35.9375 186.261719 C 35.046875 186.820312 34.640625 187.710938 34.273438 188.617188 C 33.171875 191.265625 32.882812 194.046875 33.09375 196.871094 C 33.367188 200.5625 34.488281 204 36.378906 207.191406 C 38.101562 210.089844 40.265625 212.601562 42.835938 214.804688 C 45.058594 216.699219 47.414062 218.4375 49.832031 220.082031 C 55.726562 224.117188 60.132812 229.453125 63.359375 235.792969 C 64.441406 237.9375 65.292969 240.160156 66.238281 242.363281 C 66.277344 242.460938 66.316406 242.574219 66.199219 242.671875 C 65.988281 242.691406 65.910156 242.496094 65.792969 242.363281 C 62.953125 238.804688 59.398438 236.121094 55.398438 234.03125 C 51.707031 232.101562 47.761719 230.863281 43.6875 230.070312 C 41.230469 229.589844 38.757812 229.164062 36.34375 228.488281 C 34.160156 227.867188 32.207031 226.785156 30.371094 225.492188 C 30.253906 225.394531 30.140625 225.296875 30.003906 225.222656 C 29.734375 225.066406 29.519531 224.621094 29.152344 224.871094 C 28.804688 225.105469 29.019531 225.511719 29.019531 225.839844 C 29.054688 226.59375 29.210938 227.347656 29.421875 228.082031 C 30.816406 232.894531 33.695312 236.46875 38.179688 238.769531 C 40.070312 239.734375 42.042969 240.546875 44.035156 241.28125 C 46.140625 242.054688 48.265625 242.730469 50.371094 243.523438 C 54.605469 245.105469 58.742188 246.902344 62.566406 249.359375 C 65.71875 251.386719 68.269531 253.976562 70.066406 257.300781 C 70.933594 258.90625 71.84375 260.488281 72.730469 262.074219 C 72.828125 262.230469 72.964844 262.382812 72.867188 262.617188 C 72.519531 262.671875 72.328125 262.402344 72.09375 262.230469 C 68.984375 259.96875 65.601562 258.171875 62.066406 256.683594 C 58.585938 255.234375 55.011719 254.113281 51.339844 253.222656 C 48.828125 252.605469 46.277344 252.21875 43.722656 251.8125 C 40.941406 251.386719 38.179688 250.90625 35.492188 250.09375 C 32.148438 249.085938 29.09375 247.523438 26.390625 245.300781 C 25.714844 244.738281 24.960938 244.296875 24.457031 243.617188 C 24.148438 243.714844 24.246094 243.871094 24.300781 243.984375 C 24.6875 244.816406 25.09375 245.628906 25.480469 246.441406 C 27.238281 250.132812 29.40625 253.550781 32.050781 256.664062 C 34.777344 259.871094 38.082031 262.289062 41.871094 264.085938 C 45.503906 265.785156 49.289062 266.984375 53.234375 267.699219 C 56.402344 268.277344 59.609375 268.703125 62.800781 269.109375 C 65.136719 269.417969 67.457031 269.726562 69.777344 270.230469 C 72.441406 270.789062 74.898438 271.890625 77.3125 273.070312 C 77.449219 273.128906 77.582031 273.226562 77.71875 273.285156 C 78.183594 273.4375 78.589844 273.671875 78.972656 273.921875 C 80.152344 275.875 81.929688 278.460938 83.730469 280.957031 C 85.429688 283.410156 87.207031 285.804688 89.042969 288.125 C 89.371094 288.570312 89.585938 288.820312 89.585938 288.820312 C 89.585938 288.820312 89.601562 288.820312 89.601562 288.820312 C 117.335938 323.605469 159.386719 344.054688 204.261719 344.054688 C 206.832031 344.054688 209.441406 343.996094 212.011719 343.859375 C 212.84375 343.820312 213.480469 343.105469 213.421875 342.277344 C 213.34375 341.503906 212.628906 340.863281 211.800781 340.902344 Z M 79.304688 138.21875 C 79.148438 138.46875 79.011719 138.738281 78.859375 138.988281 C 76.65625 142.527344 74.703125 146.21875 72.789062 149.910156 C 71.804688 151.785156 71.050781 153.773438 70.296875 155.765625 C 69.410156 158.0625 68.460938 160.34375 67.746094 162.703125 C 67.6875 162.875 67.628906 163.050781 67.554688 163.203125 C 68.710938 153.5625 73.0625 145.425781 79.304688 138.21875 Z M 78.742188 141.136719 C 78.683594 141.308594 78.605469 141.484375 78.550781 141.65625 C 77.910156 143.28125 77.253906 144.882812 76.675781 146.527344 C 76.074219 148.207031 75.496094 149.890625 74.859375 151.550781 C 73.871094 154.0625 72.75 156.5 71.535156 158.894531 C 70.472656 160.984375 69.425781 163.089844 68.363281 165.175781 C 68.230469 165.425781 68.230469 165.773438 67.902344 165.988281 C 67.902344 165.832031 67.863281 165.71875 67.882812 165.621094 C 68.308594 163.996094 68.691406 162.394531 69.292969 160.828125 C 69.988281 158.992188 70.683594 157.136719 71.378906 155.300781 C 72.210938 153.058594 73.136719 150.855469 74.296875 148.769531 C 75.59375 146.449219 76.925781 144.167969 78.144531 141.8125 C 78.277344 141.539062 78.472656 141.308594 78.644531 141.078125 C 78.664062 141.097656 78.703125 141.117188 78.742188 141.136719 Z M 65.5625 180.308594 C 66.179688 178.316406 66.875 176.347656 67.378906 174.316406 C 67.648438 173.214844 67.976562 172.113281 68.25 171.011719 C 68.789062 168.90625 69.601562 166.914062 70.546875 164.964844 C 71.863281 162.277344 73.351562 159.667969 74.566406 156.925781 C 75.667969 154.46875 76.714844 151.976562 77.429688 149.367188 C 78.085938 147.03125 78.839844 144.710938 79.59375 142.410156 C 79.902344 141.484375 80.269531 140.574219 80.636719 139.550781 C 80.808594 139.957031 80.695312 140.226562 80.636719 140.515625 C 79.941406 144.476562 79.089844 148.402344 77.949219 152.285156 C 77.351562 154.335938 76.753906 156.363281 75.960938 158.335938 C 74.800781 161.214844 73.464844 164.035156 72.152344 166.859375 C 70.933594 169.464844 69.71875 172.074219 68.5 174.703125 C 67.417969 177.082031 66.355469 179.457031 65.273438 181.855469 C 65.234375 181.3125 65.40625 180.808594 65.5625 180.308594 Z M 42.988281 155.746094 C 43.183594 155.804688 43.261719 155.996094 43.355469 156.152344 C 44.515625 157.949219 45.890625 159.550781 47.359375 161.097656 C 48.226562 162.007812 49.097656 162.894531 49.964844 163.785156 C 50.875 164.710938 51.707031 165.679688 52.480469 166.722656 C 55.726562 171.011719 57.695312 175.84375 58.761719 181.082031 C 58.992188 182.261719 59.128906 183.476562 59.320312 184.675781 C 59.339844 184.867188 59.378906 185.042969 59.203125 185.199219 C 59.03125 185.101562 58.972656 184.90625 58.914062 184.734375 C 57.734375 181.195312 56.09375 177.855469 54.722656 174.414062 C 53.269531 170.800781 51.222656 167.515625 48.808594 164.480469 C 47.957031 163.417969 47.085938 162.355469 46.21875 161.3125 C 45.347656 160.25 44.535156 159.164062 43.820312 157.988281 C 43.472656 157.40625 43.125 156.808594 42.914062 156.152344 C 42.875 156.015625 42.816406 155.859375 42.988281 155.746094 Z M 56.941406 187.980469 C 56.671875 187.785156 56.574219 187.554688 56.441406 187.324219 C 55.28125 185.3125 54.003906 183.378906 52.691406 181.488281 C 51.746094 180.113281 50.796875 178.742188 49.832031 177.371094 C 48.515625 175.457031 47.300781 173.503906 46.101562 171.515625 C 42.699219 165.890625 41.171875 159.746094 40.882812 153.234375 C 40.882812 153.078125 40.824219 152.921875 41 152.808594 C 41.269531 153.058594 41.210938 153.40625 41.25 153.734375 C 41.367188 154.527344 41.445312 155.320312 41.578125 156.09375 C 42.0625 159.164062 43.203125 162.007812 44.632812 164.75 C 46.257812 167.882812 48.035156 170.933594 49.8125 173.96875 C 52.285156 178.203125 54.527344 182.53125 56.632812 186.957031 C 56.789062 187.246094 57 187.515625 56.941406 187.980469 Z M 59.609375 190.125 C 59.589844 190.164062 59.570312 190.203125 59.53125 190.203125 C 59.476562 190.203125 59.378906 190.203125 59.359375 190.164062 C 59.242188 189.933594 59.144531 189.679688 59.050781 189.429688 C 58.703125 188.503906 58.394531 187.574219 57.988281 186.667969 C 56.460938 183.148438 54.875 179.671875 53 176.308594 C 51.765625 174.085938 50.507812 171.882812 49.230469 169.679688 C 47.859375 167.28125 46.488281 164.867188 45.230469 162.394531 C 45.058594 162.066406 44.84375 161.753906 44.824219 161.117188 C 45.097656 161.40625 45.210938 161.523438 45.308594 161.640625 C 46.351562 162.953125 47.394531 164.25 48.402344 165.5625 C 50.390625 168.191406 52.1875 170.972656 53.5625 173.988281 C 54.683594 176.441406 55.804688 178.878906 56.90625 181.351562 C 57.582031 182.878906 58.140625 184.445312 58.644531 186.046875 C 58.972656 187.128906 59.261719 188.230469 59.550781 189.332031 C 59.628906 189.605469 59.726562 189.855469 59.609375 190.125 Z M 39.085938 196.695312 C 39.183594 196.8125 39.300781 196.910156 39.375 197.042969 C 40.691406 198.859375 42.238281 200.484375 43.898438 201.992188 C 44.960938 202.957031 46.042969 203.925781 47.125 204.871094 C 51.648438 208.8125 54.953125 213.605469 57.214844 219.152344 C 57.273438 219.308594 57.425781 219.480469 57.273438 219.675781 C 57.039062 219.675781 56.960938 219.480469 56.867188 219.347656 C 55.570312 217.644531 54.140625 216.078125 52.710938 214.515625 C 51.589844 213.316406 50.488281 212.136719 49.347656 210.957031 C 47.066406 208.5625 44.941406 206.050781 42.953125 203.402344 C 41.617188 201.605469 40.382812 199.730469 39.335938 197.738281 C 39.164062 197.429688 38.933594 197.121094 38.914062 196.714844 C 39.027344 196.675781 39.066406 196.675781 39.085938 196.695312 Z M 56.828125 224.195312 C 54.992188 222.285156 52.960938 220.5625 50.796875 219.015625 C 48.613281 217.453125 46.429688 215.867188 44.363281 214.148438 C 42.679688 212.773438 41.191406 211.210938 39.839844 209.507812 C 36.089844 204.773438 34.292969 199.382812 34.507812 193.332031 C 34.542969 192.484375 34.527344 191.613281 34.816406 190.78125 C 34.894531 190.839844 34.929688 190.859375 34.949219 190.878906 C 34.96875 191.035156 35.007812 191.167969 35.007812 191.324219 C 35.144531 195.015625 36.265625 198.398438 38.082031 201.566406 C 38.390625 202.089844 38.699219 202.609375 39.007812 203.132812 C 40.710938 205.835938 42.660156 208.347656 44.808594 210.707031 C 47.609375 213.800781 50.46875 216.832031 53.367188 219.828125 C 54.625 221.144531 55.824219 222.515625 57.019531 223.886719 C 57.195312 224.101562 57.445312 224.292969 57.464844 224.601562 C 57.117188 224.660156 57 224.371094 56.828125 224.195312 Z M 59.300781 224.679688 C 59.28125 224.699219 59.222656 224.71875 59.203125 224.699219 C 59.109375 224.640625 59.03125 224.5625 58.953125 224.488281 C 57.292969 222.300781 55.457031 220.292969 53.5625 218.339844 C 50.855469 215.519531 48.148438 212.71875 45.464844 209.875 C 43.28125 207.558594 41.328125 205.027344 39.667969 202.300781 C 38.566406 200.523438 37.65625 198.648438 36.980469 196.65625 C 36.457031 195.113281 36.1875 193.507812 36.011719 191.632812 C 36.207031 191.863281 36.285156 191.902344 36.304688 191.980469 C 36.417969 192.269531 36.515625 192.542969 36.613281 192.832031 C 37.867188 196.425781 39.492188 199.847656 41.675781 202.976562 C 43.492188 205.605469 45.464844 208.097656 47.609375 210.457031 C 48.808594 211.769531 50.023438 213.085938 51.242188 214.378906 C 54.023438 217.296875 56.558594 220.410156 58.855469 223.714844 C 59.050781 223.984375 59.300781 224.234375 59.320312 224.601562 C 59.339844 224.621094 59.320312 224.660156 59.300781 224.679688 Z M 80.074219 176.769531 C 80.210938 176.847656 80.171875 176.964844 80.171875 177.082031 C 79.980469 179.476562 79.515625 181.816406 78.820312 184.097656 C 78.144531 186.355469 77.175781 188.484375 76.152344 190.609375 C 74.683594 193.679688 72.945312 196.617188 71.128906 199.519531 C 69.464844 202.183594 67.765625 204.832031 66.355469 207.632812 C 66.066406 208.195312 65.871094 208.832031 65.351562 209.335938 C 65.386719 209.140625 65.386719 208.988281 65.445312 208.851562 C 65.738281 208.039062 66.027344 207.210938 66.355469 206.398438 C 67.300781 204 68.441406 201.683594 69.71875 199.460938 C 71.320312 196.636719 72.984375 193.816406 74.585938 190.996094 C 75.804688 188.851562 76.847656 186.628906 77.679688 184.308594 C 78.492188 182.027344 79.207031 179.707031 79.765625 177.332031 C 79.824219 177.121094 79.824219 176.867188 80.074219 176.769531 Z M 78.414062 178.605469 C 78.433594 179.1875 78.222656 179.707031 78.027344 180.25 C 77.890625 180.636719 77.71875 181.023438 77.582031 181.429688 C 76.769531 183.730469 75.824219 185.949219 74.683594 188.097656 C 73.234375 190.839844 71.574219 193.488281 69.988281 196.136719 C 67.339844 200.582031 65.019531 205.179688 63.609375 210.167969 C 63.589844 210.261719 63.589844 210.476562 63.359375 210.417969 C 63.300781 209.257812 63.628906 208.15625 63.824219 207.035156 C 64.054688 205.605469 64.34375 204.195312 64.769531 202.824219 C 65.621094 200.136719 66.820312 197.605469 68.269531 195.1875 C 69.601562 192.984375 71.109375 190.878906 72.558594 188.753906 C 74.800781 185.546875 76.828125 182.222656 78.414062 178.605469 Z M 65.351562 195.34375 C 66.527344 192.578125 68.113281 190.046875 69.929688 187.652344 C 71.960938 184.964844 74.238281 182.472656 76.230469 179.746094 C 76.289062 179.671875 76.367188 179.496094 76.578125 179.613281 C 75.84375 181.082031 75.050781 182.511719 74.164062 183.863281 C 72.441406 186.53125 70.703125 189.199219 68.964844 191.863281 C 66.488281 195.652344 64.363281 199.613281 63.183594 204.039062 C 63.148438 204.175781 63.070312 204.308594 63.011719 204.445312 C 63.203125 201.238281 64.113281 198.242188 65.351562 195.34375 Z M 67.609375 231.191406 C 68.171875 228.3125 69.195312 225.589844 70.644531 223.019531 C 72.015625 220.5625 73.660156 218.28125 75.320312 216.023438 C 76.90625 213.875 78.375 211.691406 79.535156 209.296875 C 80.65625 206.996094 81.640625 204.675781 81.894531 202.089844 C 81.910156 201.992188 81.96875 201.875 82.046875 201.703125 C 82.183594 202.089844 82.183594 202.417969 82.183594 202.746094 C 82.144531 204.910156 81.5625 206.9375 80.636719 208.871094 C 79.574219 211.09375 78.296875 213.199219 76.984375 215.289062 C 74.644531 219.015625 72.402344 222.785156 70.800781 226.902344 C 70.007812 228.949219 69.371094 231.078125 69.042969 233.261719 C 68.539062 236.757812 68.519531 240.273438 69.023438 243.792969 C 69.078125 244.160156 69.214844 244.527344 68.925781 244.933594 C 68.808594 244.585938 68.691406 244.21875 68.597656 243.871094 C 67.902344 241.300781 67.476562 238.691406 67.300781 236.023438 C 67.222656 234.417969 67.28125 232.796875 67.609375 231.191406 Z M 35.683594 229.644531 C 38.390625 230.535156 41.210938 231.019531 43.996094 231.578125 C 46.796875 232.160156 49.503906 232.949219 52.132812 234.050781 C 55.976562 235.65625 59.457031 237.839844 62.546875 240.640625 C 64.480469 242.402344 66.027344 244.429688 67.242188 246.730469 C 67.417969 247.058594 67.628906 247.367188 67.667969 247.910156 C 67.1875 247.65625 67.011719 247.308594 66.78125 247.019531 C 64.789062 244.585938 62.46875 242.554688 59.863281 240.816406 C 56.035156 238.246094 51.878906 236.3125 47.53125 234.824219 C 45.191406 234.035156 42.855469 233.242188 40.535156 232.429688 C 38.894531 231.847656 37.328125 231.078125 35.839844 230.167969 C 35.644531 230.050781 35.316406 229.976562 35.355469 229.609375 C 35.472656 229.628906 35.589844 229.609375 35.683594 229.644531 Z M 33.675781 229.859375 C 36.265625 231.984375 39.222656 233.394531 42.371094 234.476562 C 44.84375 235.328125 47.320312 236.160156 49.8125 236.988281 C 51.28125 237.472656 52.75 238.035156 54.140625 238.730469 C 60.691406 241.917969 63.457031 244.160156 68.460938 249.707031 C 68.945312 250.246094 69.097656 250.652344 69.214844 251.523438 C 68.886719 251.542969 68.789062 251.234375 68.636719 251.058594 C 67.222656 249.320312 65.738281 247.65625 64.171875 246.054688 C 61.117188 242.941406 57.542969 240.644531 53.40625 239.25 C 50.488281 238.265625 47.570312 237.339844 44.652344 236.371094 C 42.679688 235.714844 40.691406 235.078125 38.835938 234.109375 C 36.902344 233.125 35.105469 231.925781 33.597656 230.34375 C 33.386719 230.128906 33.132812 229.957031 33.039062 229.570312 C 33.367188 229.511719 33.5 229.722656 33.675781 229.859375 Z M 70.839844 256.0625 C 70.511719 255.832031 70.375 255.464844 70.160156 255.15625 C 68.925781 253.222656 67.378906 251.5625 65.601562 250.113281 C 63.902344 248.71875 62.027344 247.542969 60.09375 246.5 C 56.054688 244.296875 51.765625 242.652344 47.414062 241.183594 C 44.75 240.292969 42.121094 239.308594 39.589844 238.089844 C 37.597656 237.125 35.742188 235.945312 34.214844 234.324219 C 32.03125 231.984375 30.488281 229.261719 29.441406 226.265625 C 29.367188 226.03125 29.210938 225.78125 29.386719 225.453125 C 29.714844 225.839844 29.90625 226.285156 30.121094 226.707031 C 32.089844 230.554688 35.027344 233.394531 38.914062 235.289062 C 40.863281 236.238281 42.933594 236.894531 44.960938 237.589844 C 47.976562 238.613281 51.03125 239.542969 54.042969 240.566406 C 56.769531 241.472656 59.242188 242.828125 61.464844 244.683594 C 62.605469 245.628906 63.667969 246.652344 64.691406 247.714844 C 66.453125 249.550781 68.132812 251.464844 69.601562 253.53125 C 70.066406 254.191406 70.511719 254.847656 70.839844 255.582031 C 70.933594 255.695312 71.050781 255.890625 70.839844 256.0625 Z M 70.21875 242.109375 C 70.199219 242.324219 70.257812 242.574219 70.046875 242.75 C 69.832031 242.554688 69.851562 242.265625 69.8125 242.015625 C 69.621094 240.3125 69.582031 238.613281 69.679688 236.914062 C 69.792969 234.4375 70.105469 232.003906 70.894531 229.628906 C 71.535156 227.714844 72.289062 225.859375 73.175781 224.042969 C 74.433594 221.394531 75.960938 218.921875 77.582031 216.464844 C 78.878906 214.496094 80.113281 212.503906 81.195312 210.417969 C 81.3125 210.203125 81.292969 209.875 81.601562 209.78125 C 81.777344 209.992188 81.660156 210.203125 81.601562 210.417969 C 80.886719 213.453125 79.902344 216.410156 78.589844 219.230469 C 77.449219 221.683594 76.191406 224.0625 74.953125 226.4375 C 73.5625 229.105469 72.402344 231.847656 71.535156 234.730469 C 70.761719 237.125 70.375 239.597656 70.21875 242.109375 Z M 72.269531 246.285156 C 72.191406 246.574219 72.191406 246.882812 71.960938 247.117188 C 71.6875 246.941406 71.746094 246.652344 71.726562 246.402344 C 71.359375 241.28125 72.191406 236.351562 74.199219 231.636719 C 75.128906 229.433594 76.230469 227.308594 77.351562 225.222656 C 78.722656 222.6875 79.960938 220.082031 80.964844 217.375 C 82.046875 214.496094 82.839844 211.519531 83.226562 208.464844 C 83.246094 208.273438 83.265625 208.078125 83.417969 207.945312 C 83.691406 208.117188 83.652344 208.386719 83.671875 208.640625 C 83.960938 212.136719 83.785156 215.617188 83.1875 219.054688 C 82.433594 223.386719 80.964844 227.480469 78.992188 231.40625 C 77.910156 233.570312 76.753906 235.714844 75.652344 237.859375 C 74.238281 240.566406 72.984375 243.328125 72.269531 246.285156 Z M 30.601562 249.707031 C 30.640625 249.667969 30.738281 249.707031 30.816406 249.726562 C 31.355469 249.839844 31.375 250.34375 31.53125 250.75 C 31.125 250.613281 30.855469 250.304688 30.601562 249.996094 C 30.523438 249.898438 30.488281 249.785156 30.601562 249.707031 Z M 72.480469 269.554688 C 71.746094 269.339844 71.03125 269.109375 70.296875 268.933594 C 67.957031 268.394531 65.601562 268.027344 63.242188 267.699219 C 60.054688 267.273438 56.847656 266.867188 53.675781 266.289062 C 50.277344 265.667969 46.972656 264.703125 43.78125 263.351562 C 39.375 261.476562 35.609375 258.75 32.554688 255.039062 C 30.738281 252.835938 29.132812 250.5 27.566406 248.121094 C 27.472656 247.96875 27.355469 247.8125 27.375 247.601562 C 27.53125 247.523438 27.683594 247.5625 27.78125 247.675781 C 28.03125 247.96875 28.285156 248.238281 28.515625 248.546875 C 29.886719 250.363281 31.316406 252.140625 32.84375 253.824219 C 34.855469 256.027344 37.097656 257.917969 39.703125 259.40625 C 44.421875 262.09375 49.425781 264.027344 54.738281 265.167969 C 57.96875 265.84375 61.234375 266.382812 64.460938 267.042969 C 66.953125 267.523438 69.425781 268.125 71.824219 268.972656 C 72.382812 269.167969 72.886719 269.457031 73.410156 269.765625 C 73.0625 269.707031 72.769531 269.632812 72.480469 269.554688 Z M 73.949219 269.011719 C 73.796875 268.972656 73.660156 268.953125 73.523438 268.898438 C 71.960938 268.199219 70.355469 267.640625 68.691406 267.195312 C 65.425781 266.328125 62.082031 265.804688 58.777344 265.128906 C 56.558594 264.664062 54.316406 264.21875 52.132812 263.582031 C 48.671875 262.558594 45.308594 261.242188 42.121094 259.542969 C 39.996094 258.421875 37.964844 257.164062 36.167969 255.582031 C 35.898438 255.328125 35.550781 255.136719 35.414062 254.769531 C 35.453125 254.75 35.511719 254.710938 35.53125 254.730469 C 35.820312 254.90625 36.128906 255.058594 36.398438 255.253906 C 39.046875 257.011719 41.90625 258.265625 44.980469 259.097656 C 48.285156 259.988281 51.667969 260.527344 55.011719 261.203125 C 59.609375 262.132812 64.074219 263.390625 68.34375 265.378906 C 70.160156 266.230469 71.921875 267.214844 73.5625 268.394531 C 73.777344 268.546875 74.027344 268.664062 74.066406 268.953125 C 74.007812 268.992188 73.96875 269.011719 73.949219 269.011719 Z M 75.320312 267.292969 C 75.109375 267.3125 74.972656 267.15625 74.820312 267.0625 C 73.929688 266.480469 73.082031 265.84375 72.171875 265.300781 C 68.324219 263.023438 64.152344 261.535156 59.84375 260.414062 C 56.75 259.621094 53.621094 259.078125 50.46875 258.578125 C 47.726562 258.132812 45.039062 257.550781 42.371094 256.78125 C 41.90625 256.644531 41.425781 256.488281 40.980469 256.296875 C 38.777344 255.347656 36.671875 254.246094 34.640625 252.992188 C 33.636719 252.375 32.671875 251.714844 31.878906 250.828125 C 31.800781 250.75 31.703125 250.691406 31.589844 250.730469 C 31.859375 250.285156 31.878906 250.265625 32.207031 250.382812 C 32.339844 250.441406 32.496094 250.5 32.632812 250.554688 C 33.984375 251.175781 35.375 251.65625 36.804688 252.0625 C 39.394531 252.796875 42.0625 253.242188 44.730469 253.628906 C 46.933594 253.957031 49.15625 254.324219 51.320312 254.828125 C 54.683594 255.621094 57.96875 256.664062 61.195312 257.917969 C 64.171875 259.078125 67.011719 260.507812 69.738281 262.171875 C 71.765625 263.40625 73.5625 264.894531 75.089844 266.695312 C 75.167969 266.90625 75.417969 267.003906 75.320312 267.292969 Z M 75.320312 267.292969 " fill-opacity="1" fill-rule="nonzero"/></g></svg>